<svg xmlns="http://www.w3.org/2000/svg" width="24" height="24" viewBox="0 0 24 24" fill="none" stroke="#fff" stroke-width="2" stroke-linecap="round" stroke-linejoin="round">
  <title>TikTok</title>
  <desc>TikTok social icon in white</desc>
  <path d="M15 4V8.5C15 10.985 17.015 13 19.5 13H20V10.5C18.76 10.5 17.58 10.11 16.62 9.43C15.63 8.72 15 7.7 15 6.5V4H12V14.25C12 15.77 10.77 17 9.25 17C7.73 17 6.5 15.77 6.5 14.25C6.5 12.73 7.73 11.5 9.25 11.5C9.62 11.5 9.98 11.56 10.32 11.67V9C7.45 9 5.12 11.33 5.12 14.2C5.12 17.07 7.45 19.4 10.32 19.4C13.19 19.4 15.52 17.07 15.52 14.2V9.05C16.67 10.02 18.19 10.62 19.78 10.62H20V7.9C18.81 7.9 17.67 7.45 16.81 6.64C15.88 5.78 15.33 4.65 15 3.5V4Z" />
</svg>
